<svg width="33" height="21" viewBox="0 0 33 21" fill="none" xmlns="http://www.w3.org/2000/svg">
<path d="M22.5 9C24.99 9 26.985 6.99 26.985 4.5C26.985 2.01 24.99 0 22.5 0C20.01 0 18 2.01 18 4.5C18 6.99 20.01 9 22.5 9ZM10.5 9C12.99 9 14.985 6.99 14.985 4.5C14.985 2.01 12.99 0 10.5 0C8.01 0 6 2.01 6 4.5C6 6.99 8.01 9 10.5 9ZM10.5 12C7.005 12 0 13.755 0 17.25V21H21V17.25C21 13.755 13.995 12 10.5 12ZM22.5 12C22.065 12 21.57 12.03 21.045 12.075C22.785 13.335 24 15.03 24 17.25V21H33V17.25C33 13.755 25.995 12 22.5 12Z" fill="black"/>
</svg>
