<svg width="58" height="58" viewBox="0 0 58 58" fill="none" xmlns="http://www.w3.org/2000/svg">
<g filter="url(#filter0_d_610_125)">
<path d="M51.5515 14.3887C54.2191 19.867 54.7269 26.122 52.977 31.9466C51.227 37.7711 47.3434 42.7522 42.0756 45.9286C36.8078 49.105 30.5293 50.2513 24.4519 49.1465C18.3745 48.0417 12.929 44.7639 9.16646 39.9459C5.4039 35.1279 3.591 29.1112 4.07767 23.057C4.56433 17.0028 7.31605 11.3403 11.8017 7.16245C16.2874 2.9846 22.1891 0.587541 28.3676 0.433925C34.5462 0.280308 40.5637 2.38102 45.2587 6.33061L50.705 0.979094C51.0653 0.624992 51.5541 0.426047 52.0637 0.426025C52.5733 0.426004 53.0621 0.624907 53.4224 0.978978C53.7828 1.33305 53.9853 1.81329 53.9853 2.31404C53.9853 2.81479 53.7829 3.29505 53.4226 3.64915L38.5181 18.2943L38.5171 18.2955L38.5159 18.2965L30.3649 26.3058C30.0046 26.6599 29.5158 26.8588 29.0062 26.8588C28.4966 26.8589 28.0079 26.66 27.6475 26.3059C27.2871 25.9518 27.0847 25.4716 27.0846 24.9708C27.0846 24.4701 27.287 23.9898 27.6474 23.6357L34.3052 17.0937C32.5003 15.9205 30.3453 15.3803 28.189 15.5604C26.0327 15.7406 24.0014 16.6306 22.424 18.0863C20.8466 19.5421 19.8154 21.4783 19.4973 23.5817C19.1792 25.685 19.5929 27.8322 20.6714 29.6758C21.7499 31.5193 23.4301 32.9512 25.4399 33.7396C27.4497 34.5281 29.6715 34.6269 31.7455 34.0201C33.8196 33.4133 35.6245 32.1364 36.8681 30.3962C38.1117 28.6559 38.7212 26.5542 38.5978 24.4312C38.5835 24.1837 38.6189 23.9358 38.7021 23.7017C38.7852 23.4676 38.9145 23.2519 39.0825 23.0669C39.4219 22.6933 39.8983 22.4674 40.4071 22.439C40.9159 22.4106 41.4154 22.5819 41.7956 22.9153C41.9839 23.0804 42.1372 23.2803 42.2468 23.5036C42.3565 23.727 42.4203 23.9693 42.4346 24.2169C42.6098 27.221 41.7366 30.194 39.9593 32.6444C38.182 35.0948 35.6069 36.876 32.6598 37.6935C29.7126 38.511 26.5698 38.3159 23.7508 37.1405C20.9317 35.9651 18.6053 33.8797 17.1559 31.229C15.7065 28.5783 15.2209 25.521 15.7794 22.5624C16.338 19.6038 17.9072 16.921 20.2277 14.9575C22.5482 12.994 25.4811 11.8672 28.5416 11.7635C31.6021 11.6598 34.607 12.5853 37.0597 14.3871L42.5283 9.01357C38.5238 5.74641 33.432 4.04823 28.2308 4.2452C23.0297 4.44217 18.086 6.52041 14.3493 10.0807C10.6125 13.6411 8.34623 18.4325 7.98564 23.5347C7.62506 28.6368 9.19563 33.69 12.3957 37.7237C15.5957 41.7574 20.1996 44.4871 25.3231 45.3886C30.4466 46.2901 35.7285 45.2997 40.1541 42.6078C44.5798 39.9159 47.8373 35.7122 49.3009 30.8041C50.7645 25.896 50.3311 20.6295 48.0839 16.0163C47.8642 15.5645 47.8362 15.0454 48.0061 14.5733C48.1759 14.1012 48.5296 13.7147 48.9895 13.4988C49.4493 13.283 49.9776 13.2555 50.4581 13.4224C50.9385 13.5893 51.3319 13.9369 51.5515 14.3887V14.3887Z" fill="white"/>
</g>
<defs>
<filter id="filter0_d_610_125" x="0" y="0.426025" width="58" height="57.1304" filterUnits="userSpaceOnUse" color-interpolation-filters="sRGB">
<feFlood flood-opacity="0" result="BackgroundImageFix"/>
<feColorMatrix in="SourceAlpha" type="matrix" values="0 0 0 0 0 0 0 0 0 0 0 0 0 0 0 0 0 0 127 0" result="hardAlpha"/>
<feOffset dy="4"/>
<feGaussianBlur stdDeviation="2"/>
<feComposite in2="hardAlpha" operator="out"/>
<feColorMatrix type="matrix" values="0 0 0 0 0 0 0 0 0 0 0 0 0 0 0 0 0 0 0.25 0"/>
<feBlend mode="normal" in2="BackgroundImageFix" result="effect1_dropShadow_610_125"/>
<feBlend mode="normal" in="SourceGraphic" in2="effect1_dropShadow_610_125" result="shape"/>
</filter>
</defs>
</svg>
