<svg width="79" height="93" viewBox="0 0 79 93" fill="none" xmlns="http://www.w3.org/2000/svg">
<g filter="url(#filter0_d_66_15)">
<path d="M70.5759 3.44955C70.4396 3.12046 70.2339 2.82867 69.9747 2.5967C69.7155 2.36473 69.4097 2.19878 69.081 2.11167C63.8332 0.723323 58.4093 0.258726 53.0265 0.736498C25.9216 3.11248 5.78461 28.4273 8.13779 57.1674C8.56311 62.3831 9.72503 67.5046 11.5846 72.3606L4.81621 80.8694C4.6294 81.104 4.48819 81.3755 4.40064 81.6684C4.31309 81.9613 4.28092 82.2698 4.30596 82.5764C4.331 82.883 4.41276 83.1816 4.54658 83.4551C4.68039 83.7287 4.86364 83.9718 5.08585 84.1707C5.30805 84.3695 5.56486 84.5202 5.84161 84.614C6.11835 84.7079 6.4096 84.7431 6.69872 84.7176C6.98784 84.6922 7.26917 84.6066 7.52662 84.4657C7.78407 84.3249 8.01261 84.1315 8.19917 83.8967L14.9675 75.3881C19.7932 76.5152 24.7483 76.8682 29.6669 76.4353C56.7717 74.0593 76.9087 48.7444 74.5555 20.0044C74.0937 14.2958 72.7492 8.70284 70.5759 3.44955ZM29.2847 71.7677C25.5963 72.0911 21.8824 71.9307 18.2274 71.29L53.7578 26.6237C54.1339 26.1497 54.3165 25.5361 54.2656 24.9177C54.2146 24.2992 53.9341 23.7265 53.4859 23.3253C53.0376 22.9241 52.4582 22.7273 51.8749 22.7781C51.2915 22.8288 50.752 23.123 50.3748 23.596L14.8445 68.2625C12.2363 60.2506 11.686 51.6557 13.2501 43.3618C14.8142 35.068 18.4363 27.3746 23.7438 21.0731C29.0514 14.7716 35.8526 10.0894 43.4481 7.50829C51.0436 4.92715 59.1589 4.54019 66.9595 6.38722C69.6325 13.3104 70.7352 20.7961 70.1785 28.24C69.6218 35.684 67.4213 42.8778 63.7547 49.2409C60.088 55.6039 55.0579 60.958 49.0702 64.8711C43.0826 68.7841 36.3051 71.1466 29.2847 71.7677Z" fill="white"/>
</g>
<defs>
<filter id="filter0_d_66_15" x="0.297729" y="0.55452" width="78.4447" height="92.1711" filterUnits="userSpaceOnUse" color-interpolation-filters="sRGB">
<feFlood flood-opacity="0" result="BackgroundImageFix"/>
<feColorMatrix in="SourceAlpha" type="matrix" values="0 0 0 0 0 0 0 0 0 0 0 0 0 0 0 0 0 0 127 0" result="hardAlpha"/>
<feOffset dy="4"/>
<feGaussianBlur stdDeviation="2"/>
<feComposite in2="hardAlpha" operator="out"/>
<feColorMatrix type="matrix" values="0 0 0 0 0 0 0 0 0 0 0 0 0 0 0 0 0 0 0.25 0"/>
<feBlend mode="normal" in2="BackgroundImageFix" result="effect1_dropShadow_66_15"/>
<feBlend mode="normal" in="SourceGraphic" in2="effect1_dropShadow_66_15" result="shape"/>
</filter>
</defs>
</svg>
