<svg width="58" height="58" viewBox="0 0 58 58" fill="none" xmlns="http://www.w3.org/2000/svg">
<g filter="url(#filter0_d_306_190)">
<path d="M29 0C15.2 0 4 11.2 4 25C4 38.8 15.2 50 29 50C42.8 50 54 38.8 54 25C54 11.2 42.8 0 29 0ZM29 7.5C33.15 7.5 36.5 10.85 36.5 15C36.5 19.15 33.15 22.5 29 22.5C24.85 22.5 21.5 19.15 21.5 15C21.5 10.85 24.85 7.5 29 7.5ZM29 43C22.75 43 17.225 39.8 14 34.95C14.075 29.975 24 27.25 29 27.25C33.975 27.25 43.925 29.975 44 34.95C40.775 39.8 35.25 43 29 43Z" fill="white"/>
</g>
<defs>
<filter id="filter0_d_306_190" x="0" y="0" width="58" height="58" filterUnits="userSpaceOnUse" color-interpolation-filters="sRGB">
<feFlood flood-opacity="0" result="BackgroundImageFix"/>
<feColorMatrix in="SourceAlpha" type="matrix" values="0 0 0 0 0 0 0 0 0 0 0 0 0 0 0 0 0 0 127 0" result="hardAlpha"/>
<feOffset dy="4"/>
<feGaussianBlur stdDeviation="2"/>
<feComposite in2="hardAlpha" operator="out"/>
<feColorMatrix type="matrix" values="0 0 0 0 0 0 0 0 0 0 0 0 0 0 0 0 0 0 0.25 0"/>
<feBlend mode="normal" in2="BackgroundImageFix" result="effect1_dropShadow_306_190"/>
<feBlend mode="normal" in="SourceGraphic" in2="effect1_dropShadow_306_190" result="shape"/>
</filter>
</defs>
</svg>
