<svg width="54" height="50" viewBox="0 0 54 50" fill="none" xmlns="http://www.w3.org/2000/svg">
<path d="M20.3704 46.2963C20.3704 47.0288 20.1532 47.7449 19.7462 48.354C19.3392 48.963 18.7608 49.4377 18.084 49.7181C17.4072 49.9984 16.6626 50.0717 15.9441 49.9288C15.2257 49.7859 14.5657 49.4332 14.0478 48.9152C13.5298 48.3972 13.177 47.7373 13.0341 47.0188C12.8912 46.3004 12.9646 45.5557 13.2449 44.8789C13.5252 44.2022 13.9999 43.6237 14.609 43.2168C15.2181 42.8098 15.9341 42.5926 16.6667 42.5926C17.6489 42.5926 18.591 42.9828 19.2856 43.6774C19.9801 44.372 20.3704 45.314 20.3704 46.2963ZM44.4444 42.5926C43.7119 42.5926 42.9958 42.8098 42.3868 43.2168C41.7777 43.6237 41.303 44.2022 41.0227 44.8789C40.7423 45.5557 40.669 46.3004 40.8119 47.0188C40.9548 47.7373 41.3076 48.3972 41.8255 48.9152C42.3435 49.4332 43.0034 49.7859 43.7219 49.9288C44.4403 50.0717 45.185 49.9984 45.8618 49.7181C46.5386 49.4377 47.117 48.963 47.524 48.354C47.9309 47.7449 48.1481 47.0288 48.1481 46.2963C48.1481 45.314 47.7579 44.372 47.0633 43.6774C46.3688 42.9828 45.4267 42.5926 44.4444 42.5926ZM52.4767 10.5898C52.1295 10.1728 51.6947 9.83743 51.2033 9.60746C50.7118 9.3775 50.1757 9.25861 49.6331 9.25926H10.8091L9.67475 3.03932C9.51942 2.18622 9.0696 1.41469 8.4037 0.859256C7.7378 0.303826 6.89808 -0.000266046 6.03095 1.74651e-07H1.85185C1.36071 1.74651e-07 0.889684 0.195105 0.542395 0.542395C0.195105 0.889684 0 1.36071 0 1.85185C0 2.34299 0.195105 2.81402 0.542395 3.16131C0.889684 3.5086 1.36071 3.7037 1.85185 3.7037H6.03118L7.41759 11.3072C7.42743 11.3998 7.44421 11.4916 7.46778 11.5816L11.893 35.8496C12.0483 36.7027 12.4981 37.4742 13.164 38.0296C13.8298 38.585 14.6695 38.8891 15.5366 38.8889H45.5951C46.4626 38.8892 47.3027 38.5849 47.9687 38.029C48.6347 37.4731 49.0844 36.7009 49.2391 35.8473L53.2771 13.6252C53.3748 13.0915 53.3537 12.5429 53.2154 12.0182C53.077 11.4936 52.8248 11.0059 52.4767 10.5898Z" fill="white"/>
</svg>
