<svg width="58" height="58" viewBox="0 0 58 58" fill="none" xmlns="http://www.w3.org/2000/svg">
<g filter="url(#filter0_d_306_162)">
<path d="M51.5515 14.2098C54.2191 19.785 54.7269 26.1508 52.977 32.0784C51.227 38.006 47.3434 43.0753 42.0756 46.3079C36.8078 49.5405 30.5293 50.7071 24.4519 49.5827C18.3745 48.4584 12.929 45.1226 9.16646 40.2193C5.4039 35.316 3.591 29.1928 4.07767 23.0315C4.56433 16.8701 7.31605 11.1074 11.8017 6.85564C16.2874 2.60385 22.1891 0.164375 28.3676 0.00803898C34.5462 -0.148297 40.5637 1.98959 45.2587 6.00909L50.705 0.562857C51.0653 0.202488 51.5541 2.20653e-05 52.0637 1.80346e-09C52.5733 -2.20617e-05 53.0621 0.202401 53.4224 0.562739C53.7828 0.923077 53.9853 1.41181 53.9853 1.92143C53.9853 2.43105 53.7829 2.9198 53.4226 3.28017L38.5181 18.1846L38.5171 18.1857L38.5159 18.1868L30.3649 26.3378C30.0046 26.6981 29.5158 26.9006 29.0062 26.9006C28.4966 26.9007 28.0079 26.6982 27.6475 26.3379C27.2871 25.9776 27.0847 25.4888 27.0846 24.9792C27.0846 24.4696 27.287 23.9808 27.6474 23.6205L34.3052 16.9626C32.5003 15.7687 30.3453 15.2189 28.189 15.4023C26.0327 15.5856 24.0014 16.4913 22.424 17.9729C20.8466 19.4544 19.8154 21.4249 19.4973 23.5654C19.1792 25.706 19.5929 27.8912 20.6714 29.7674C21.7499 31.6436 23.4301 33.1008 25.4399 33.9032C27.4497 34.7056 29.6715 34.8061 31.7455 34.1886C33.8196 33.5711 35.6245 32.2716 36.8681 30.5005C38.1117 28.7295 38.7212 26.5906 38.5978 24.43C38.5835 24.1781 38.6189 23.9258 38.7021 23.6876C38.7852 23.4493 38.9145 23.2298 39.0825 23.0416C39.4219 22.6613 39.8983 22.4315 40.4071 22.4025C40.9159 22.3736 41.4154 22.548 41.7956 22.8873C41.9839 23.0553 42.1372 23.2588 42.2468 23.486C42.3565 23.7133 42.4203 23.96 42.4346 24.2119C42.6098 27.2692 41.7366 30.2948 39.9593 32.7886C38.182 35.2824 35.6069 37.095 32.6598 37.927C29.7126 38.759 26.5698 38.5605 23.7508 37.3643C20.9317 36.168 18.6053 34.0457 17.1559 31.3481C15.7065 28.6505 15.2209 25.5391 15.7794 22.5281C16.338 19.5172 17.9072 16.7869 20.2277 14.7887C22.5482 12.7904 25.4811 11.6437 28.5416 11.5381C31.6021 11.4326 34.607 12.3745 37.0597 14.2082L42.5283 8.73953C38.5238 5.41454 33.432 3.68631 28.2308 3.88677C23.0297 4.08723 18.086 6.20224 14.3493 9.82559C10.6125 13.4489 8.34623 18.3251 7.98564 23.5176C7.62506 28.7101 9.19563 33.8527 12.3957 37.9578C15.5957 42.0629 20.1996 44.8409 25.3231 45.7583C30.4466 46.6757 35.7285 45.6679 40.1541 42.9283C44.5798 40.1887 47.8373 35.9106 49.3009 30.9157C50.7645 25.9207 50.3311 20.5611 48.0839 15.8662C47.8642 15.4064 47.8362 14.8781 48.0061 14.3976C48.1759 13.9172 48.5296 13.5238 48.9895 13.3042C49.4493 13.0845 49.9776 13.0565 50.458 13.2264C50.9385 13.3962 51.3319 13.75 51.5515 14.2098Z" fill="white"/>
</g>
<defs>
<filter id="filter0_d_306_162" x="0" y="0" width="58" height="58" filterUnits="userSpaceOnUse" color-interpolation-filters="sRGB">
<feFlood flood-opacity="0" result="BackgroundImageFix"/>
<feColorMatrix in="SourceAlpha" type="matrix" values="0 0 0 0 0 0 0 0 0 0 0 0 0 0 0 0 0 0 127 0" result="hardAlpha"/>
<feOffset dy="4"/>
<feGaussianBlur stdDeviation="2"/>
<feComposite in2="hardAlpha" operator="out"/>
<feColorMatrix type="matrix" values="0 0 0 0 0 0 0 0 0 0 0 0 0 0 0 0 0 0 0.25 0"/>
<feBlend mode="normal" in2="BackgroundImageFix" result="effect1_dropShadow_306_162"/>
<feBlend mode="normal" in="SourceGraphic" in2="effect1_dropShadow_306_162" result="shape"/>
</filter>
</defs>
</svg>
